<?xml version="1.0" encoding="UTF-8"?>
<svg version="1.1" xmlns="http://www.w3.org/2000/svg" width="500" height="500">
<path d="M0 0 C36.63 0 73.26 0 111 0 C111.33 1.65 111.66 3.3 112 5 C110.87722656 5.10957031 109.75445312 5.21914063 108.59765625 5.33203125 C97.24795709 6.50351494 88.3902766 7.890876 78.9453125 14.6953125 C77 16 77 16 74 17 C72.94404597 18.8455184 72.94404597 18.8455184 72 21 C71.03176386 22.36200349 70.05181166 23.71572713 69.0625 25.0625 C62.23724456 35.34210233 61.19910628 47.95303496 63.57550049 59.89108276 C65.50347902 67.98832063 67.89051044 75.95785229 70.25 83.9375 C70.92119192 86.26311829 71.59047087 88.58928956 72.2578125 90.91601562 C74.26850207 97.9002505 76.31404709 104.87400109 78.36616135 111.846138 C80.47343334 119.00690839 82.57578395 126.16912441 84.67578125 133.33203125 C84.92683939 134.18834829 85.17789753 135.04466534 85.43656349 135.92693138 C91.41206318 156.32145287 97.24420809 176.75655645 103.06893921 197.19454956 C106.33903101 208.66854526 109.61507102 220.14084394 112.890625 231.61328125 C113.22597448 232.78796526 113.56132397 233.96264927 113.90683556 235.17292976 C122.51294354 265.3175004 131.15844426 295.45075667 139.82202148 325.57885742 C140.70906113 328.66372984 141.59609832 331.74860297 142.48312569 334.83347893 C143.06199572 336.84658942 143.64090742 338.85968794 144.21986198 340.87277412 C147.8866496 353.6237257 151.53780347 366.37899832 155.17083168 379.13960838 C156.49843698 383.79989817 157.82970455 388.45914304 159.16123104 393.11831379 C160.35613876 397.30106621 161.54504063 401.48545668 162.72884655 405.67136383 C163.60517538 408.76301322 164.49082348 411.85199371 165.375 414.94140625 C165.6725972 416.00203278 165.9701944 417.0626593 166.27680969 418.15542603 C171.05049713 434.73058337 178.18011276 449.75244339 193.83984375 458.60546875 C202.10147316 462.46996207 209.94626955 464.30776306 219 465 C219.38218767 466.65614657 219.71395102 468.32457024 220 470 C218.25073805 471.74926195 215.96205908 471.13236718 213.63050842 471.14663696 C212.47644753 471.14595718 212.47644753 471.14595718 211.29907227 471.14526367 C210.49259247 471.14862228 209.68611267 471.1519809 208.85519409 471.15544128 C206.1755827 471.16498015 203.49603359 471.16689586 200.81640625 471.16796875 C198.96174595 471.17117928 197.1070859 471.17454319 195.25242615 471.17805481 C191.35927747 471.18405343 187.46615102 471.18589396 183.57299805 471.18530273 C178.57461322 471.18520107 173.57637031 471.19885475 168.57801914 471.21607494 C164.74598023 471.22717182 160.91397587 471.22922266 157.08192253 471.22869301 C155.23866219 471.22987657 153.39540106 471.23431924 151.55215645 471.24202538 C148.97810948 471.25177886 146.40437382 471.24896576 143.83032227 471.24291992 C143.06297256 471.24853943 142.29562286 471.25415894 141.50502014 471.25994873 C136.22831554 471.22831554 136.22831554 471.22831554 134 469 C134.375 466.875 134.375 466.875 135 465 C135.6290625 464.90203125 136.258125 464.8040625 136.90625 464.703125 C146.22442741 463.07525063 152.20110883 460.49991026 158.45703125 453.29296875 C164.35297539 444.53114797 164.45091696 434.5770108 162.5144043 424.46411133 C160.91350418 417.63450102 158.81495571 410.95030769 156.75 404.25 C156.07838819 402.00782851 155.40935655 399.76488284 154.74267578 397.52124023 C153.29174254 392.64465095 151.83002928 387.77146256 150.36230469 382.89990234 C147.85484711 374.56014891 145.42584351 366.19808137 143.0078125 357.83203125 C142.79728493 357.1037594 142.58675735 356.37548756 142.36985016 355.62514687 C141.51428737 352.66480867 140.65910369 349.70436142 139.8045311 346.74373722 C137.68087301 339.38653773 135.54773883 332.03209739 133.41403961 324.67780495 C127.25795941 303.45709376 121.12557836 282.22953369 115 261 C88.92205861 260.28144714 66.15945292 260.52151932 43 274 C42.13117188 274.5053125 41.26234375 275.010625 40.3671875 275.53125 C18.98450605 288.94199098 6.95251132 309.81971523 0.625 333.6875 C0.30104248 334.88552246 -0.02291504 336.08354492 -0.35668945 337.31787109 C-1.34639884 340.9877424 -2.32172756 344.66132786 -3.29437256 348.33575439 C-4.06764479 351.25540721 -4.84356094 354.17435083 -5.61962891 357.09326172 C-13.19839807 385.61919405 -20.63156396 414.18068966 -27.87573242 442.79345703 C-28.13212997 443.80527039 -28.38852753 444.81708374 -28.6526947 445.85955811 C-29.1231503 447.71725506 -29.59269848 449.57518221 -30.06105042 451.43341064 C-31.21388646 455.98829339 -32.39239899 460.53613308 -33.60058594 465.07666016 C-33.84387634 465.99371735 -34.08716675 466.91077454 -34.33782959 467.85562134 C-35 470 -35 470 -36 471 C-37.99958364 471.04080783 -40.00045254 471.04254356 -42 471 C-42.6875 468.6875 -42.6875 468.6875 -43 466 C-42.54195984 465.54618454 -42.08391968 465.09236908 -41.61199951 464.62480164 C-39.60304684 462.59989433 -39.2259042 461.06741832 -38.52050781 458.31567383 C-38.26826447 457.35332825 -38.01602112 456.39098267 -37.75613403 455.3994751 C-37.49114105 454.34596863 -37.22614807 453.29246216 -36.953125 452.20703125 C-36.66517059 451.09817566 -36.37721619 449.98932007 -36.08053589 448.84686279 C-35.12782644 445.17105168 -34.18919224 441.49178574 -33.25 437.8125 C-32.5857245 435.24242304 -31.9205023 432.67261809 -31.25341797 430.10327148 C-30.91255695 428.78999593 -30.57170619 427.47671771 -30.23086548 426.16343689 C-30.06052418 425.50718763 -29.89018288 424.85093838 -29.71467972 424.17480278 C-29.19120327 422.15602786 -28.6690904 420.13690451 -28.14730835 418.11769104 C-23.94955361 401.88326923 -19.58736429 385.69305329 -15.22143555 369.50317383 C-12.53104003 359.51599327 -9.85435904 349.52920265 -7.33984375 339.49609375 C-0.30652391 311.53978828 -0.30652391 311.53978828 7 300 C7.57363281 299.07445312 8.14726562 298.14890625 8.73828125 297.1953125 C23.04273611 275.55776928 44.63919214 261.19741177 69.890625 255.90625 C77.51651342 254.57464201 85.21894853 254.57365501 92.9375 254.4375 C95.17641444 254.39335375 97.41519823 254.34662827 99.65394592 254.29469299 C101.66622921 254.24863688 103.67869718 254.21086813 105.69116211 254.17358398 C108.36010089 254.03356956 110.4563335 253.69386497 113 253 C112.80415817 252.31970734 112.60831635 251.63941467 112.40653992 250.93850708 C112.12631485 249.96509369 111.84608978 248.9916803 111.55737305 247.98876953 C111.07763786 246.3223214 111.07763786 246.3223214 110.58821106 244.62220764 C109.85577845 242.07796749 109.12334633 239.53372719 108.39091492 236.98948669 C106.51044149 230.45730565 104.62996245 223.92512622 102.74946213 217.39295292 C101.64156522 213.54452164 100.53367226 209.69608923 99.42578125 205.84765625 C99.20083481 205.06626974 98.97588837 204.28488323 98.74412537 203.47981834 C95.72986604 193.00929297 92.71578485 182.53871635 89.70188141 172.06808853 C87.92629932 165.89954605 86.15066656 159.73101816 84.375 153.5625 C84.18141655 152.89000717 83.9878331 152.21751434 83.78838348 151.52464294 C75.19769207 121.68152872 66.59998717 91.84043667 58 62 C55.02883538 71.36220997 52.40289194 80.78497383 49.9296875 90.2890625 C49.53663925 91.79074594 49.14333041 93.2923612 48.74978638 94.79391479 C47.90207411 98.03040884 47.05607248 101.26734325 46.21142578 104.50463867 C44.84299156 109.74927489 43.47063233 114.99287934 42.09765625 120.23632812 C40.6216422 125.87393536 39.14586197 131.51160321 37.67132568 137.14959717 C33.97924619 151.26596646 30.27763571 165.37981428 26.5703125 179.4921875 C26.16640856 181.02973442 26.16640856 181.02973442 25.75434494 182.5983429 C24.38627258 187.80603555 23.01804594 193.01368765 21.64971924 198.22131348 C18.90133141 208.68124814 16.1536521 219.14136889 13.40625 229.6015625 C13.00233473 231.13933601 13.00233473 231.13933601 12.59025955 232.70817566 C8.97423534 246.47547915 5.36235254 260.24386181 1.7545166 274.01331329 C0.33857609 279.41681413 -1.07804552 284.82013645 -2.49462891 290.22346878 C-3.58347151 294.37704447 -4.67180818 298.53075113 -5.75878906 302.68481445 C-8.29068337 312.36013713 -10.83240486 322.03278919 -13.3916626 331.70091248 C-13.80869139 333.27698799 -14.22529582 334.85317584 -14.64154053 336.42945862 C-15.96573053 341.44375627 -17.29667148 346.45618128 -18.63642883 351.46634293 C-19.05746111 353.04416284 -19.4765649 354.62249897 -19.89347839 356.2014122 C-23.29619534 369.07618781 -26.87724724 381.94432742 -33.3125 393.6875 C-33.89161133 394.75883179 -33.89161133 394.75883179 -34.48242188 395.85180664 C-50.86690439 425.56041314 -78.67761477 445.3633533 -110.69238281 455.33886719 C-150.57521889 466.76530816 -193.49149258 462.49449504 -229.80078125 442.4296875 C-233.34689408 440.4169956 -236.79411413 438.27085398 -240.21362305 436.05053711 C-245.90486507 432.703617 -252.71664669 431.89487871 -259.07421875 433.53515625 C-267.61425425 436.51196863 -272.7149966 441.06875147 -277 449 C-277.90165965 451.35290233 -278.47368386 453.52631415 -279 456 C-279.33 456 -279.66 456 -280 456 C-280 418.05 -280 380.1 -280 341 C-277.31171513 343.68828487 -277.53750383 345.49537326 -277.125 349.25 C-273.83331612 373.6282603 -262.38267018 394.72540748 -245.40283203 412.27124023 C-242 415.8065621 -242 415.8065621 -242 418 C-241.14341797 418.37125 -241.14341797 418.37125 -240.26953125 418.75 C-237.64476031 420.19565697 -235.84143774 421.91674416 -233.6875 424 C-209.90677823 445.63144371 -178.67114945 456.50282961 -146.75683594 455.1953125 C-119.83562563 453.28803582 -97.12679134 438.12147898 -79.8125 418.25 C-64.11859904 398.73322573 -56.06648543 376.03678668 -51.73095703 351.62771606 C-47.96718545 330.45166069 -42.51951059 309.77661712 -37 289 C-36.46879588 286.99596197 -35.93770999 284.99189259 -35.40673828 282.98779297 C-33.22317439 274.74973259 -31.03664718 266.51246988 -28.84204102 258.27734375 C-25.27757824 244.89118794 -21.79163925 231.48711273 -18.375 218.0625 C-13.87909988 200.40551448 -9.30037581 182.77206723 -4.66760254 165.15052795 C-2.31993101 156.22070105 0.0231696 147.28967858 2.3657341 138.35851097 C4.22040856 131.28772104 6.0755906 124.21706426 7.93070221 117.14638901 C8.83375618 113.70430387 9.73667723 110.26218386 10.63960457 106.8200655 C11.2977346 104.31175259 11.95630757 101.80355626 12.61489868 99.29536438 C13.47706169 96.0113281 14.33684169 92.72668099 15.19491577 89.4415741 C17.09001406 82.19629682 19.00064433 74.95690655 20.99307442 67.73769379 C21.84921015 64.63443588 22.69600272 61.52865688 23.54267502 58.42280579 C23.9392918 56.97972283 24.34086283 55.53799017 24.74794388 54.0978241 C28.27038158 41.63435188 30.00249308 30.94923544 24 19 C17.94923808 9.60126607 9.43520991 7.2618189 -1 5 C-0.67 3.35 -0.34 1.7 0 0 Z " fill="#04EDFD" transform="translate(280,19)"/>
<path d="M0 0 C1.72476563 0.62261719 1.72476563 0.62261719 3.484375 1.2578125 C8.71419945 3.20978923 13.74276045 5.34707692 18.75 7.8125 C23.61444967 10.03645014 27.69662104 11.2022285 33 10 C37.38751311 8.18659703 40.27317289 6.11446824 42.875 2.125 C44.08291948 -1.23033189 45.1027328 -4.5489723 46 -8 C47.66611905 -8.042721 49.33382885 -8.04063832 51 -8 C52.55753311 -6.44246689 52.12595507 -4.95307799 52.12698364 -2.78637695 C52.12980347 -1.87771881 52.13262329 -0.96906067 52.13552856 -0.03286743 C52.13249222 1.47420273 52.13249222 1.47420273 52.12939453 3.01171875 C52.13202301 4.58960678 52.13202301 4.58960678 52.13470459 6.19937134 C52.13912543 9.69543074 52.13618429 13.19144003 52.1328125 16.6875 C52.13348547 19.10506195 52.13445544 21.52262383 52.13571167 23.94018555 C52.13718896 29.01449221 52.13503309 34.08878131 52.13037109 39.16308594 C52.1246738 45.68384703 52.12795263 52.20456696 52.13394356 58.72532654 C52.13754833 63.71968906 52.13641097 68.71404174 52.13381577 73.70840454 C52.13314626 76.11349492 52.13397572 78.51858618 52.13629532 80.92367554 C52.13882048 84.27856835 52.13498317 87.6333935 52.12939453 90.98828125 C52.13141876 91.99299469 52.13344299 92.99770813 52.13552856 94.03286743 C52.13270874 94.94152557 52.12988892 95.85018372 52.12698364 96.78637695 C52.1264181 97.97768974 52.1264181 97.97768974 52.12584114 99.19306946 C52 101 52 101 51 102 C49.33382885 102.04063832 47.66611905 102.042721 46 102 C45.16994121 98.34052343 44.75092861 94.70683478 44.4050293 90.97314453 C41.72731184 62.83757679 30.73156525 37.58250242 9.3125 18.75 C-11.08383098 2.4859127 -35.27586122 -4.31873936 -61.15820312 -1.7890625 C-80.30742172 0.5888273 -97.69451717 9.2309551 -112 22 C-112.85722656 22.76183594 -113.71445313 23.52367188 -114.59765625 24.30859375 C-131.48467807 40.20379667 -143.04807217 65.44442686 -144.12255859 88.64648438 C-144.83420182 114.95571894 -140.91231266 136.83261559 -122.30078125 156.6640625 C-101.90470509 177.37179347 -75.18608669 186.78808284 -48.23876953 196.01855469 C-15.56097483 207.2175943 16.71884905 221.1923919 43.35498047 243.64111328 C45.06919696 245.05716092 46.82817052 246.39998484 48.59765625 247.74609375 C49.73363638 248.66175289 50.86782425 249.57964106 52 250.5 C53.010625 251.2940625 54.02125 252.088125 55.0625 252.90625 C57.2456714 256.39228175 57.21011933 256.99469035 56.56640625 260.875 C56.07743857 262.92486311 55.55154516 264.9660811 55 267 C54.69690918 268.20462891 54.39381836 269.40925781 54.08154297 270.65039062 C53.07744506 274.61241487 52.00987754 278.55601782 50.9375 282.5 C50.5692747 283.86968775 50.20143386 285.23947892 49.83398438 286.609375 C47.19395298 296.41814105 47.19395298 296.41814105 46 300 C42.27792894 298.75930965 41.86885653 297.61055119 39.75 294.375 C21.75196677 269.09907355 -6.66166617 253.22234288 -35 242 C-35.67401855 241.72913574 -36.34803711 241.45827148 -37.04248047 241.17919922 C-46.78717291 237.30252106 -56.67375787 234.17406662 -66.74368286 231.25292969 C-104.81545185 220.17837539 -144.19642073 201.71709921 -165 166 C-167.98181048 160.47525473 -170.6189892 154.806755 -173 149 C-173.26400101 148.39810349 -173.52800201 147.79620697 -173.80000305 147.17607117 C-176.68056771 139.8118415 -176.5485307 132.26611221 -176.609375 124.4765625 C-176.61785713 123.73625164 -176.62633926 122.99594078 -176.63507843 122.23319626 C-176.67984748 118.30793914 -176.70765787 114.38300626 -176.72070312 110.45751953 C-176.7338118 107.25269195 -176.7753119 104.05030877 -176.84375 100.84619141 C-177.56963485 66.18601866 -177.56963485 66.18601866 -167 51 C-166.55377792 50.35303665 -166.10755585 49.7060733 -165.64781189 49.039505 C-162.94144654 45.18401671 -160.06435792 41.5776507 -157 38 C-156.10861328 36.88431641 -156.10861328 36.88431641 -155.19921875 35.74609375 C-150.49312489 30.00668095 -144.8527365 25.52473787 -139 21 C-138.13375 20.31808594 -137.2675 19.63617188 -136.375 18.93359375 C-98.77958693 -9.65458494 -43.99530121 -16.09351928 0 0 Z " fill="#04EDFD" transform="translate(176,18)"/>
<path d="M0 0 C1.20003594 3.63753911 0.85375441 6.77315726 0.609375 10.56640625 C0.30105933 23.10908919 4.73396129 35.04647463 8.25 46.9375 C8.92119192 49.26311829 9.59047087 51.58928956 10.2578125 53.91601562 C12.26850207 60.9002505 14.31404709 67.87400109 16.36616135 74.846138 C18.47343334 82.00690839 20.57578395 89.16912441 22.67578125 96.33203125 C22.92683939 97.18834829 23.17789753 98.04466534 23.43656349 98.92693138 C29.41206318 119.32145287 35.24420809 139.75655645 41.06893921 160.19454956 C44.33903101 171.66854526 47.61507102 183.14084394 50.890625 194.61328125 C51.22597448 195.78796526 51.56132397 196.96264927 51.90683556 198.17292976 C60.51294354 228.3175004 69.15844426 258.45075667 77.82202148 288.57885742 C78.70906113 291.66372984 79.59609832 294.74860297 80.48312569 297.83347893 C81.06199572 299.84658942 81.64090742 301.85968794 82.21986198 303.87277412 C85.8866496 316.6237257 89.53780347 329.37899832 93.17083168 342.13960838 C94.49843698 346.79989817 95.82970455 351.45914304 97.16123104 356.11831379 C98.35613876 360.30106621 99.54504063 364.48545668 100.72884655 368.67136383 C101.60517538 371.76301322 102.49082348 374.85199371 103.375 377.94140625 C103.6725972 379.00203278 103.9701944 380.0626593 104.27680969 381.15542603 C109.05049713 397.73058337 116.18011276 412.75244339 131.83984375 421.60546875 C140.10147316 425.46996207 147.94626955 427.30776306 157 428 C157.38218767 429.65614657 157.71395102 431.32457024 158 433 C156.25073805 434.74926195 153.96205908 434.13236718 151.63050842 434.14663696 C150.47644753 434.14595718 150.47644753 434.14595718 149.29907227 434.14526367 C148.49259247 434.14862228 147.68611267 434.1519809 146.85519409 434.15544128 C144.1755827 434.16498015 141.49603359 434.16689586 138.81640625 434.16796875 C136.96174595 434.17117928 135.1070859 434.17454319 133.25242615 434.17805481 C129.35927747 434.18405343 125.46615102 434.18589396 121.57299805 434.18530273 C116.57461322 434.18520107 111.57637031 434.19885475 106.57801914 434.21607494 C102.74598023 434.22717182 98.91397587 434.22922266 95.08192253 434.22869301 C93.23866219 434.22987657 91.39540106 434.23431924 89.55215645 434.24202538 C86.97810948 434.25177886 84.40437382 434.24896576 81.83032227 434.24291992 C81.06297256 434.24853943 80.29562286 434.25415894 79.50502014 434.25994873 C74.22831554 434.22831554 74.22831554 434.22831554 72 432 C72.375 429.875 72.375 429.875 73 428 C73.6290625 427.90203125 74.258125 427.8040625 74.90625 427.703125 C84.22442741 426.07525063 90.20110883 423.49991026 96.45703125 416.29296875 C102.35297539 407.53114797 102.45091696 397.5770108 100.5144043 387.46411133 C98.91350418 380.63450102 96.81495571 373.95030769 94.75 367.25 C94.07838819 365.00782851 93.40935655 362.76488284 92.74267578 360.52124023 C91.29174254 355.64465095 89.83002928 350.77146256 88.36230469 345.89990234 C85.85484711 337.56014891 83.42584351 329.19808137 81.0078125 320.83203125 C80.69202114 319.73962348 80.69202114 319.73962348 80.36985016 318.62514687 C79.51428737 315.66480867 78.65910369 312.70436142 77.8045311 309.74373722 C75.68087301 302.38653773 73.54773883 295.03209739 71.41403961 287.67780495 C65.25795941 266.45709376 59.12557836 245.22953369 53 224 C26.92205861 223.28144714 4.15945292 223.52151932 -19 237 C-19.86882812 237.5053125 -20.73765625 238.010625 -21.6328125 238.53125 C-43.01549395 251.94199098 -55.04748868 272.81971523 -61.375 296.6875 C-61.69895752 297.88552246 -62.02291504 299.08354492 -62.35668945 300.31787109 C-63.34639884 303.9877424 -64.32172756 307.66132786 -65.29437256 311.33575439 C-66.06764479 314.25540721 -66.84356094 317.17435083 -67.61962891 320.09326172 C-75.19839807 348.61919405 -82.63156396 377.18068966 -89.87573242 405.79345703 C-90.26032875 407.31117706 -90.26032875 407.31117706 -90.6526947 408.85955811 C-91.1231503 410.71725506 -91.59269848 412.57518221 -92.06105042 414.43341064 C-93.21388646 418.98829339 -94.39239899 423.53613308 -95.60058594 428.07666016 C-95.84387634 428.99371735 -96.08716675 429.91077454 -96.33782959 430.85562134 C-97 433 -97 433 -98 434 C-99.99958364 434.04080783 -102.00045254 434.04254356 -104 434 C-104.6875 431.6875 -104.6875 431.6875 -105 429 C-104.54195984 428.54618454 -104.08391968 428.09236908 -103.61199951 427.62480164 C-101.60304684 425.59989433 -101.2259042 424.06741832 -100.52050781 421.31567383 C-100.26826447 420.35332825 -100.01602112 419.39098267 -99.75613403 418.3994751 C-99.49114105 417.34596863 -99.22614807 416.29246216 -98.953125 415.20703125 C-98.66517059 414.09817566 -98.37721619 412.98932007 -98.08053589 411.84686279 C-97.12782644 408.17105168 -96.18919224 404.49178574 -95.25 400.8125 C-94.5857245 398.24242304 -93.9205023 395.67261809 -93.25341797 393.10327148 C-92.91255695 391.78999593 -92.57170619 390.47671771 -92.23086548 389.16343689 C-92.06052418 388.50718763 -91.89018288 387.85093838 -91.71467972 387.17480278 C-91.19120327 385.15602786 -90.6690904 383.13690451 -90.14730835 381.11769104 C-85.94955361 364.88326923 -81.58736429 348.69305329 -77.22143555 332.50317383 C-74.53104003 322.51599327 -71.85435904 312.52920265 -69.33984375 302.49609375 C-62.30652391 274.53978828 -62.30652391 274.53978828 -55 263 C-54.42636719 262.07445312 -53.85273438 261.14890625 -53.26171875 260.1953125 C-38.95726389 238.55776928 -17.36080786 224.19741177 7.890625 218.90625 C15.51651342 217.57464201 23.21894853 217.57365501 30.9375 217.4375 C33.17641444 217.39335375 35.41519823 217.34662827 37.65394592 217.29469299 C39.66622921 217.24863688 41.67869718 217.21086813 43.69116211 217.17358398 C46.36010089 217.03356956 48.4563335 216.69386497 51 216 C50.80415817 215.31970734 50.60831635 214.63941467 50.40653992 213.93850708 C50.12631485 212.96509369 49.84608978 211.9916803 49.55737305 210.98876953 C49.23754959 209.87780411 48.91772614 208.76683868 48.58821106 207.62220764 C47.85577845 205.07796749 47.12334633 202.53372719 46.39091492 199.98948669 C44.51044149 193.45730565 42.62996245 186.92512622 40.74946213 180.39295292 C39.64156522 176.54452164 38.53367226 172.69608923 37.42578125 168.84765625 C37.20083481 168.06626974 36.97588837 167.28488323 36.74412537 166.47981834 C33.72986604 156.00929297 30.71578485 145.53871635 27.70188141 135.06808853 C25.92629932 128.89954605 24.15066656 122.73101816 22.375 116.5625 C22.18141655 115.89000717 21.9878331 115.21751434 21.78838348 114.52464294 C13.19769207 84.68152872 4.59998717 54.84043667 -4 25 C-4.66 26.65 -5.32 28.3 -6 30 C-7.1875 28.4375 -7.1875 28.4375 -8 26 C-6.625 22.25 -6.625 22.25 -5 19 C-4.505 19.99 -4.505 19.99 -4 21 C-3.01 20.505 -3.01 20.505 -2 20 C-1.96241577 19.14450562 -1.96241577 19.14450562 -1.92407227 18.27172852 C-1.80843451 15.70173843 -1.68556376 13.13214473 -1.5625 10.5625 C-1.52318359 9.66466797 -1.48386719 8.76683594 -1.44335938 7.84179688 C-1.40146484 6.98779297 -1.35957031 6.13378906 -1.31640625 5.25390625 C-1.27974854 4.46314697 -1.24309082 3.6723877 -1.20532227 2.85766602 C-1 1 -1 1 0 0 Z " fill="#1DE4F2" transform="translate(342,56)"/>
<path d="M0 0 C0.66 0.33 1.32 0.66 2 1 C2 1.99 2 2.98 2 4 C2.99 4 3.98 4 5 4 C6.54296875 6.125 6.54296875 6.125 8.1875 9 C16.15374925 21.98265307 27.2653649 29.31634123 42 33 C45.33301219 33.51914719 48.6308277 33.85092158 52 34 C52.38218767 35.65614657 52.71395102 37.32457024 53 39 C51.25073805 40.74926195 48.96205908 40.13236718 46.63050842 40.14663696 C45.47644753 40.14595718 45.47644753 40.14595718 44.29907227 40.14526367 C43.49259247 40.14862228 42.68611267 40.1519809 41.85519409 40.15544128 C39.1755827 40.16498015 36.49603359 40.16689586 33.81640625 40.16796875 C31.96174595 40.17117928 30.1070859 40.17454319 28.25242615 40.17805481 C24.35927747 40.18405343 20.46615102 40.18589396 16.57299805 40.18530273 C11.57461322 40.18520107 6.57637031 40.19885475 1.57801914 40.21607494 C-2.25401977 40.22717182 -6.08602413 40.22922266 -9.91807747 40.22869301 C-11.76133781 40.22987657 -13.60459894 40.23431924 -15.44784355 40.24202538 C-18.02189052 40.25177886 -20.59562618 40.24896576 -23.16967773 40.24291992 C-23.93702744 40.24853943 -24.70437714 40.25415894 -25.49497986 40.25994873 C-30.77168446 40.22831554 -30.77168446 40.22831554 -33 38 C-32.625 35.875 -32.625 35.875 -32 34 C-31.3709375 33.90203125 -30.741875 33.8040625 -30.09375 33.703125 C-19.73731572 31.89386841 -13.21282448 28.68477056 -7 20 C-3.51838388 13.96519873 -3.32474091 7.81955919 -3 1 C-2.01 0.67 -1.02 0.34 0 0 Z " fill="#04EEFC" transform="translate(447,450)"/>
<path d="M0 0 C1.16144531 0.41507813 2.32289063 0.83015625 3.51953125 1.2578125 C10.24635444 3.74806835 16.66444337 6.63915168 23 10 C21.0625 10.5625 21.0625 10.5625 19 11 C18.67 10.67 18.34 10.34 18 10 C16.33382885 9.95936168 14.66611905 9.957279 13 10 C13.309375 10.495 13.61875 10.99 13.9375 11.5 C14.9553183 13.89486659 15.21170624 15.50820814 15.4375 18.0625 C15.65170286 21.89635612 15.65170286 21.89635612 17.5625 24 C18.036875 24.33 18.51125 24.66 19 25 C18.67 25.66 18.34 26.32 18 27 C16.96166016 25.96552734 16.96166016 25.96552734 15.90234375 24.91015625 C-2.70596087 6.84487667 -25.9446806 -2.60277102 -51.92382812 -2.3515625 C-69.02383892 -1.85148095 -84.07793056 3.28589628 -98.828125 11.80078125 C-101 13 -101 13 -104 14 C-104 11.36 -104 8.72 -104 6 C-107.84761867 6.38476187 -110.71985166 6.85717928 -114.1875 8.625 C-117.30564964 10.14942871 -117.86963495 10.00547057 -121 9 C-82.82922066 -8.80419453 -40.3949784 -14.76054346 0 0 Z " fill="#14E7F6" transform="translate(176,18)"/>
<path d="M0 0 C1.13199353 0.9080162 2.25532363 1.82683826 3.375 2.75 C4.00148438 3.26046875 4.62796875 3.7709375 5.2734375 4.296875 C7 6 7 6 7.9765625 8.078125 C9.2844259 10.53411276 10.51125525 10.83949243 13 12 C14.46911429 13.2984172 15.90317386 14.63692118 17.3125 16 C41.0790633 37.61856487 72.31385107 48.49951823 104.21240234 47.21289062 C113.72069135 46.48673648 122.8821034 43.63907828 132 41 C130.6875 42.5 130.6875 42.5 129 44 C128.01 44 127.02 44 126 44 C126 44.66 126 45.32 126 46 C124.515 46.495 124.515 46.495 123 47 C126.47325181 48.1577506 129.36067448 48.06866652 133 48 C113.49831136 59.35541364 77.66043684 54.26527415 57 49 C40.32044297 44.59402253 25.23362908 37.43126355 10.78637695 28.05053711 C8.31496945 26.59714549 5.75443683 25.75747013 3 25 C3 24.67 3 24.34 3 24 C4.65 24 6.3 24 8 24 C8.33 23.34 8.66 22.68 9 22 C9.99 22 10.98 22 12 22 C13.20370117 18.85060367 13.20370117 18.85060367 13 15 C11.23408165 12.92033981 9.29902741 11.37832135 7.1484375 9.703125 C4.25749427 7.41139546 2.19877731 4.95460701 0 2 C0 1.34 0 0.68 0 0 Z " fill="#13E9F7" transform="translate(29,427)"/>
<path d="M0 0 C0.99 1.32 1.98 2.64 3 4 C3.66 2.68 4.32 1.36 5 0 C7.07457184 7.04854845 9.14388083 14.09861963 11.20661068 21.15064335 C12.16473173 24.42564722 13.12461132 27.70011345 14.08862305 30.97338867 C15.19855272 34.74241648 16.3006308 38.51371808 17.40234375 42.28515625 C17.74716293 43.45208511 18.09198212 44.61901398 18.44725037 45.82130432 C20.01603779 51.212693 21.4312334 56.40771722 22 62 C21.01 60.68 20.02 59.36 19 58 C18.67 59.65 18.34 61.3 18 63 C16.57643989 60.30429916 15.52025557 57.70811495 14.67138672 54.78222656 C14.43128876 53.96167786 14.1911908 53.14112915 13.94381714 52.29571533 C13.69165436 51.41953552 13.43949158 50.54335571 13.1796875 49.640625 C12.91616486 48.73624695 12.65264221 47.8318689 12.38113403 46.90008545 C11.54215855 44.01775503 10.70851495 41.13391369 9.875 38.25 C9.30634063 36.29286672 8.73733427 34.33583422 8.16796875 32.37890625 C6.7739652 27.58727304 5.38718405 22.79363297 4 18 C-6.89 17.67 -17.78 17.34 -29 17 C-29 16.67 -29 16.34 -29 16 C-24.21281308 15.97528262 -19.4256633 15.95713175 -14.63842773 15.94506836 C-13.00984042 15.94003935 -11.38125763 15.93321535 -9.75268555 15.92456055 C-7.41193528 15.91243231 -5.0712447 15.90675737 -2.73046875 15.90234375 C-2.00224411 15.89718246 -1.27401947 15.89202118 -0.52372742 15.88670349 C2.59602288 15.88635721 5.01633188 16.00544396 8 17 C7.34 14.03 6.68 11.06 6 8 C5.34 8 4.68 8 4 8 C4 8.66 4 9.32 4 10 C3.34 10 2.68 10 2 10 C1.34 6.7 0.68 3.4 0 0 Z " fill="#29DEEE" transform="translate(391,262)"/>
<path d="M0 0 C0.66 0.33 1.32 0.66 2 1 C-1 3 -1 3 -4 3 C-4 3.66 -4 4.32 -4 5 C-4.99 5.33 -5.98 5.66 -7 6 C-3.52674819 7.1577506 -0.63932552 7.06866652 3 7 C-7.77943687 13.27663413 -22.85168756 12.2978193 -34.875 12.3125 C-36.18122314 12.31781738 -37.48744629 12.32313477 -38.83325195 12.32861328 C-46.74267909 12.27138226 -54.24785224 11.57954305 -62 10 C-62 9.67 -62 9.34 -62 9 C-56.06 9 -50.12 9 -44 9 C-46.31 8.67 -48.62 8.34 -51 8 C-51 7.34 -51 6.68 -51 6 C-49.86908936 6.0314209 -49.86908936 6.0314209 -48.71533203 6.06347656 C-24.9581534 6.74901275 -24.9581534 6.74901275 -2.15234375 0.8046875 C-1.44207031 0.53914063 -0.73179687 0.27359375 0 0 Z " fill="#21E4F3" transform="translate(159,468)"/>
<path d="M0 0 C0.66 0.33 1.32 0.66 2 1 C1.319375 1.556875 0.63875 2.11375 -0.0625 2.6875 C-0.701875 3.450625 -1.34125 4.21375 -2 5 C-1.85974801 7.70705512 -1.85974801 7.70705512 -1 10 C1.31 10.33 3.62 10.66 6 11 C-0.65944105 17.65944105 -14.51597561 19.64400864 -23.4609375 20.1875 C-26 20 -26 20 -29 18 C-27.68 17.67 -26.36 17.34 -25 17 C-25 16.34 -25 15.68 -25 15 C-24.236875 14.731875 -23.47375 14.46375 -22.6875 14.1875 C-20.03787866 13.21972526 -20.03787866 13.21972526 -18.62890625 11.57421875 C-16.66446599 9.67573092 -14.72575239 8.77061213 -12.25 7.625 C-7.77366558 5.46559527 -3.9506723 3.00594632 0 0 Z " fill="#0CEAF9" transform="translate(180,456)"/>
<path d="M0 0 C36.63 0 73.26 0 111 0 C111.495 2.475 111.495 2.475 112 5 C110.35064453 5.16435547 110.35064453 5.16435547 108.66796875 5.33203125 C100.19888361 6.22371575 92.13996582 7.36286205 84 10 C84.33 9.01 84.66 8.02 85 7 C93.33649346 2.98061922 101.96559583 3.71994384 111 4 C111 3.34 111 2.68 111 2 C74.7 2 38.4 2 1 2 C1 2.66 1 3.32 1 4 C2.98 4 4.96 4 7 4 C7 4.66 7 5.32 7 6 C4.36 5.67 1.72 5.34 -1 5 C-0.67 3.35 -0.34 1.7 0 0 Z " fill="#14EBF5" transform="translate(280,19)"/>
<path d="M0 0 C0.495 2.475 0.495 2.475 1 5 C-0.32 5 -1.64 5 -3 5 C-3 5.66 -3 6.32 -3 7 C-12.93103448 16 -12.93103448 16 -18 16 C-18 13.36 -18 10.72 -18 8 C-21.84761867 8.38476187 -24.71985166 8.85717928 -28.1875 10.625 C-31.30564964 12.14942871 -31.86963495 12.00547057 -35 11 C-6.89039476 -1.86795262 -6.89039476 -1.86795262 0 0 Z " fill="#14E6F6" transform="translate(90,16)"/>
<path d="M0 0 C0.66 0 1.32 0 2 0 C2.66 2.97 3.32 5.94 4 9 C3.19353027 8.83701416 2.38706055 8.67402832 1.55615234 8.50610352 C-2.6337873 7.90980083 -6.67390248 7.87509675 -10.8984375 7.90234375 C-12.15087753 7.90446617 -12.15087753 7.90446617 -13.42861938 7.90663147 C-16.07745042 7.91219826 -18.7261948 7.92474453 -21.375 7.9375 C-23.17838419 7.9425193 -24.98176971 7.94708145 -26.78515625 7.95117188 C-31.19013721 7.9621568 -35.59505394 7.97939837 -40 8 C-39.67 6.68 -39.34 5.36 -39 4 C-38.02651611 3.97494385 -37.05303223 3.9498877 -36.05004883 3.92407227 C-32.42508653 3.82962722 -28.80029934 3.72949833 -25.17553711 3.62768555 C-23.60917264 3.58447661 -22.04276533 3.54279209 -20.47631836 3.50268555 C-18.2197582 3.44464129 -15.96341092 3.38104698 -13.70703125 3.31640625 C-13.01100296 3.29969376 -12.31497467 3.28298126 -11.59785461 3.26576233 C-7.97661612 3.15637929 -4.49115856 3.01543847 -1 2 C-0.67 1.34 -0.34 0.68 0 0 Z " fill="#16E8F9" transform="translate(395,270)"/>
<path d="M0 0 C0.66 0 1.32 0 2 0 C2.40756134 7.80404491 1.63149275 14.61000481 -1 22 C-2 23 -2 23 -5.0625 23.0625 C-6.031875 23.041875 -7.00125 23.02125 -8 23 C-8.6875 20.6875 -8.6875 20.6875 -9 18 C-8.34837891 17.39478516 -8.34837891 17.39478516 -7.68359375 16.77734375 C-5.25781719 14.21648914 -4.45061691 11.16160723 -3.375 7.875 C-1.10472973 1.10472973 -1.10472973 1.10472973 0 0 Z " fill="#23E9F2" transform="translate(246,467)"/>
<path d="M0 0 C2.68828487 2.68828487 2.46249617 4.49537326 2.875 8.25 C3.70619616 14.70673179 5.18716693 20.70528075 7.09765625 26.94140625 C7.88832869 29.62147776 8.50372176 32.25256275 9 35 C8.34 35 7.68 35 7 35 C5.74335022 32.09399739 5 30.20395416 5 27 C3.35 28.32 1.7 29.64 0 31 C0 20.77 0 10.54 0 0 Z " fill="#0EE9F8" transform="translate(0,360)"/>
<path d="M0 0 C0.625 3.375 0.625 3.375 1 7 C0.34 7.66 -0.32 8.32 -1 9 C-1 8.34 -1 7.68 -1 7 C-3.64 7.33 -6.28 7.66 -9 8 C-9.99 5.36 -10.98 2.72 -12 0 C-7.22144261 -2.04795317 -4.77855739 -2.04795317 0 0 Z " fill="#04EDFC" transform="translate(55,451)"/>
<path d="M0 0 C1.66611905 -0.042721 3.33382885 -0.04063832 5 0 C6.7654469 1.7654469 6.132475 4.1217924 6.13867188 6.47583008 C6.13416016 7.30880615 6.12964844 8.14178223 6.125 9 C6.12306641 9.87615967 6.12113281 10.75231934 6.11914062 11.6550293 C6.01822934 28.77210589 5.45787101 45.88950656 5 63 C4.67 63 4.34 63 4 63 C4 42.87 4 22.74 4 2 C2.68 2 1.36 2 0 2 C0 1.34 0 0.68 0 0 Z " fill="#1EEFFB" transform="translate(222,10)"/>
<path d="M0 0 C3.47914843 -0.0294191 6.95826417 -0.04693792 10.4375 -0.0625 C11.41138672 -0.07087891 12.38527344 -0.07925781 13.38867188 -0.08789062 C19.34778969 -0.10782078 25.09067683 0.22390482 31 1 C31 1.66 31 2.32 31 3 C27.7 3 24.4 3 21 3 C21 3.66 21 4.32 21 5 C22.918125 4.938125 22.918125 4.938125 24.875 4.875 C27.0546875 4.8046875 27.0546875 4.8046875 29 5 C29.66 5.66 30.32 6.32 31 7 C22.75 6.34 14.5 5.68 6 5 C6 4.34 6 3.68 6 3 C11.94 2.505 11.94 2.505 18 2 C12.06 1.67 6.12 1.34 0 1 C0 0.67 0 0.34 0 0 Z " fill="#29DCEA" transform="translate(116,10)"/>
<path d="M0 0 C1.918125 0.4640625 1.918125 0.4640625 3.875 0.9375 C8.88758722 2.06114833 13.88510956 2.59422581 19 3 C19.33 4.65 19.66 6.3 20 8 C14.72 8 9.44 8 4 8 C4 6.02 4 4.04 4 2 C2.68 1.67 1.36 1.34 0 1 C0 0.67 0 0.34 0 0 Z " fill="#0FE8F6" transform="translate(480,481)"/>
<path d="M0 0 C3.78239671 0.65690619 7.21841526 1.720131 10.8125 3.0625 C11.78832031 3.42472656 12.76414063 3.78695313 13.76953125 4.16015625 C14.50558594 4.43730469 15.24164063 4.71445312 16 5 C12.79678245 7.60774762 11.1747899 8.34789916 7 8 C7 9.65 7 11.3 7 13 C7.7425 13.04125 8.485 13.0825 9.25 13.125 C13.09551776 14.34857383 14.04305483 16.59346582 16 20 C12.01287679 18.16753428 8.41915496 15.76144225 4.75 13.375 C3.77546875 12.74464844 3.77546875 12.74464844 2.78125 12.1015625 C1.18631119 11.06954327 -0.40700669 10.03501972 -2 9 C-0.68 8.67 0.64 8.34 2 8 C2 8.66 2 9.32 2 10 C3.32 10 4.64 10 6 10 C6 9.34 6 8.68 6 8 C5.34 7.67 4.68 7.34 4 7 C4 5.68 4 4.36 4 3 C2.68 2.34 1.36 1.68 0 1 C0 0.67 0 0.34 0 0 Z " fill="#1DE4F1" transform="translate(171,17)"/>
<path d="M0 0 C1.91559581 2.32864616 1.25 4.64293882 1.25 7.51953125 C-0.07 7.51953125 -1.39 7.51953125 -2.75 7.51953125 C-2.75 6.85953125 -2.75 6.19953125 -2.75 5.51953125 C-4.07 5.51953125 -5.39 5.51953125 -6.75 5.51953125 C-6.75 4.85953125 -6.75 4.19953125 -6.75 3.51953125 C-7.74 3.51953125 -8.73 3.51953125 -9.75 3.51953125 C-10.08 2.52953125 -10.41 1.53953125 -10.75 0.51953125 C-11.74 0.18953125 -12.73 -0.14046875 -13.75 -0.48046875 C-13.75 -1.14046875 -13.75 -1.80046875 -13.75 -2.48046875 C-7.73676196 -3.851909 -4.97670206 -3.676983 0 0 Z " fill="#04EDFC" transform="translate(175.75,19.48046875)"/>
<path d="M0 0 C5.94 0.99 5.94 0.99 12 2 C12 4 12 4 10.79296875 5.61328125 C8.48417958 7.39894608 7.19376329 7.31277232 4.3125 7.1875 C3.50425781 7.16042969 2.69601563 7.13335938 1.86328125 7.10546875 C1.24839844 7.07066406 0.63351563 7.03585938 0 7 C0 6.34 0 5.68 0 5 C-3.3 4.67 -6.6 4.34 -10 4 C-10 3.34 -10 2.68 -10 2 C-6.7 2 -3.4 2 0 2 C0 1.34 0 0.68 0 0 Z " fill="#0CE9F8" transform="translate(147,11)"/>
<path d="M0 0 C0.66 0.33 1.32 0.66 2 1 C2 1.99 2 2.98 2 4 C2.99 4 3.98 4 5 4 C6.421875 5.6796875 6.421875 5.6796875 7.75 7.875 C8.19859375 8.59429687 8.6471875 9.31359375 9.109375 10.0546875 C9.40328125 10.69664062 9.6971875 11.33859375 10 12 C9.67 12.66 9.34 13.32 9 14 C7.68 13.34 6.36 12.68 5 12 C5 11.01 5 10.02 5 9 C4.67 9.66 4.34 10.32 4 11 C2.35 10.67 0.7 10.34 -1 10 C-1.02689216 8.52093108 -1.04634621 7.04172517 -1.0625 5.5625 C-1.07410156 4.73878906 -1.08570313 3.91507812 -1.09765625 3.06640625 C-1 1 -1 1 0 0 Z " fill="#0FE8F7" transform="translate(447,450)"/>
<path d="M0 0 C0.33 0 0.66 0 1 0 C1.06058594 0.60328125 1.12117188 1.2065625 1.18359375 1.828125 C1.26738281 2.62734375 1.35117187 3.4265625 1.4375 4.25 C1.55931641 5.43335938 1.55931641 5.43335938 1.68359375 6.640625 C1.92968562 8.99285705 1.92968562 8.99285705 2.6796875 11.140625 C2.83824219 12.06101563 2.83824219 12.06101563 3 13 C0.6875 15.5 0.6875 15.5 -2 18 C-3.29519995 20.16620544 -3.29519995 20.16620544 -4 22 C-5.0354051 18.8151065 -4.94040666 16.86968126 -4.00390625 13.671875 C-3.66069336 12.47304687 -3.66069336 12.47304687 -3.31054688 11.25 C-3.06369141 10.425 -2.81683594 9.6 -2.5625 8.75 C-2.31951172 7.90953125 -2.07652344 7.0690625 -1.82617188 6.203125 C-1.22626051 4.13284266 -0.61429181 2.06606103 0 0 Z " fill="#19E5F3" transform="translate(268,213)"/>
<path d="M0 0 C0.66 0 1.32 0 2 0 C2 1.98 2 3.96 2 6 C2.99 6.33 3.98 6.66 5 7 C4.979375 7.845625 4.95875 8.69125 4.9375 9.5625 C5.00216232 13.11892777 5.4385496 16.49093503 6 20 C5.34 20 4.68 20 4 20 C4 18.02 4 16.04 4 14 C3.01 14 2.02 14 1 14 C0.01 10.37 -0.98 6.74 -2 3 C-1.34 3 -0.68 3 0 3 C0 2.01 0 1.02 0 0 Z " fill="#11E8F7" transform="translate(375,199)"/>
<path d="M0 0 C1.093125 0.33 2.18625 0.66 3.3125 1 C6.84578884 2.13086649 6.84578884 2.13086649 10 2 C10.99 2.33 11.98 2.66 13 3 C13.33 2.34 13.66 1.68 14 1 C14 1.99 14 2.98 14 4 C16.64 4 19.28 4 22 4 C21.67 4.66 21.34 5.32 21 6 C14.73 6 8.46 6 2 6 C2 5.01 2 4.02 2 3 C1.34 3 0.68 3 0 3 C0 2.01 0 1.02 0 0 Z " fill="#04ECFC" transform="translate(94,472)"/>
<path d="M0 0 C2.74564227 2.74564227 2.57908452 4.86486161 3.0625 8.6875 C3.21847656 9.88761719 3.37445313 11.08773438 3.53515625 12.32421875 C3.68855469 13.53722656 3.84195312 14.75023437 4 16 C4.32946227 18.33388307 4.66163691 20.66739074 5 23 C4.34 23.33 3.68 23.66 3 24 C2.87625 23.360625 2.7525 22.72125 2.625 22.0625 C2.41875 21.381875 2.2125 20.70125 2 20 C1.34 19.67 0.68 19.34 0 19 C0 12.73 0 6.46 0 0 Z " fill="#20E6F4" transform="translate(0,360)"/>
<path d="M0 0 C0.33 0 0.66 0 1 0 C1.04241723 2.33294775 1.04092937 4.66702567 1 7 C0.67 7.33 0.34 7.66 0 8 C-0.23075082 9.34747084 -0.41153063 10.70377565 -0.5625 12.0625 C-0.706875 13.361875 -0.85125 14.66125 -1 16 C-1.66 16 -2.32 16 -3 16 C-2.7525 16.804375 -2.505 17.60875 -2.25 18.4375 C-1.9040044 23.36793735 -3.76888143 26.69097273 -6 31 C-6.33 31 -6.66 31 -7 31 C-6.34664916 24.11914052 -4.73500725 17.66453965 -2.9375 11 C-2.65583984 9.93910156 -2.37417969 8.87820312 -2.08398438 7.78515625 C-1.39396867 5.18882599 -0.69920797 2.59386689 0 0 Z " fill="#28E1EE" transform="translate(280,167)"/>
<path d="M0 0 C0.99 0.495 0.99 0.495 2 1 C2 2.65 2 4.3 2 6 C2.66 6 3.32 6 4 6 C4 4.02 4 2.04 4 0 C6.42130331 2.42130331 6.52840504 3.80111377 7.125 7.125 C7.29257812 8.03507812 7.46015625 8.94515625 7.6328125 9.8828125 C7.81457031 10.93082031 7.81457031 10.93082031 8 12 C6 11 6 11 5 10 C5.33 13.3 5.66 16.6 6 20 C3.78545028 16.67817543 2.95381499 13.83578665 1.875 10 C1.34519531 8.14375 1.34519531 8.14375 0.8046875 6.25 C0 3 0 3 0 0 Z " fill="#29DFED" transform="translate(347,109)"/>
<path d="M0 0 C0.33 0.66 0.66 1.32 1 2 C0.09239638 4.59732225 -0.87067892 7.09450975 -1.9375 9.625 C-2.22818359 10.33140625 -2.51886719 11.0378125 -2.81835938 11.765625 C-3.53867488 13.51327573 -4.26845694 15.25701915 -5 17 C-5.33 17 -5.66 17 -6 17 C-6 14.33333333 -6 11.66666667 -6 9 C-6.66 9 -7.32 9 -8 9 C-7.125 4.25 -7.125 4.25 -6 2 C-5.34 2 -4.68 2 -4 2 C-3.67 2.66 -3.34 3.32 -3 4 C-2.67 3.01 -2.34 2.02 -2 1 C-1.34 0.67 -0.68 0.34 0 0 Z " fill="#26E3F1" transform="translate(287,329)"/>
<path d="M0 0 C1.98 0 3.96 0 6 0 C6 1.32 6 2.64 6 4 C4.90042969 4.10957031 3.80085938 4.21914063 2.66796875 4.33203125 C-5.80111639 5.22371575 -13.86003418 6.36286205 -22 9 C-21.67 8.01 -21.34 7.02 -21 6 C-12.66350654 1.98061922 -4.03440417 2.71994384 5 3 C5 2.34 5 1.68 5 1 C3.35 1 1.7 1 0 1 C0 0.67 0 0.34 0 0 Z " fill="#29E1EC" transform="translate(386,20)"/>
<path d="M0 0 C0.33 0 0.66 0 1 0 C1 1.65 1 3.3 1 5 C2.32 4.01 3.64 3.02 5 2 C4.44854729 7.23880078 3.57077907 11.97350697 2 17 C1.67 17 1.34 17 1 17 C0.875 10.375 0.875 10.375 2 7 C-0.35785318 7.89335797 -0.35785318 7.89335797 -1.125 11.0625 C-1.41375 12.031875 -1.7025 13.00125 -2 14 C-3.25127906 10.45332822 -2.72285053 8.27746562 -1.5625 4.75 C-1.27503906 3.85796875 -0.98757812 2.9659375 -0.69140625 2.046875 C-0.46324219 1.37140625 -0.23507813 0.6959375 0 0 Z " fill="#2AE1EF" transform="translate(246,460)"/>
<path d="M0 0 C0.66 0 1.32 0 2 0 C2 1.65 2 3.3 2 5 C2.66 5 3.32 5 4 5 C3.67 5.99 3.34 6.98 3 8 C1.66943352 8.34421176 0.3355322 8.67558881 -1 9 C-3.18967637 10.61477029 -3.18967637 10.61477029 -5.25 12.5625 C-5.95640625 13.20316406 -6.6628125 13.84382813 -7.390625 14.50390625 C-7.92171875 14.99761719 -8.4528125 15.49132812 -9 16 C-9.66 15.67 -10.32 15.34 -11 15 C-10.31164062 14.38125 -10.31164062 14.38125 -9.609375 13.75 C-5.10648959 9.5119902 -2.48288355 5.66097449 0 0 Z " fill="#20E3F4" transform="translate(443,464)"/>
<path d="M0 0 C0.5625 1.9375 0.5625 1.9375 1 4 C0.67 4.33 0.34 4.66 0 5 C-0.04080783 6.99958364 -0.04254356 9.00045254 0 11 C-0.99 11.33 -1.98 11.66 -3 12 C-3 13.98 -3 15.96 -3 18 C-3.66 18 -4.32 18 -5 18 C-5.23143718 12.56122635 -4.95760108 7.14001138 -3 2 C-2.01 1.34 -1.02 0.68 0 0 Z " fill="#09EBFB" transform="translate(282,336)"/>
<path d="M0 0 C-1.32 0.99 -2.64 1.98 -4 3 C-1.36 3 1.28 3 4 3 C0.97546033 5.01635978 -1.63075348 6.03246502 -5.0625 7.1875 C-6.12597656 7.55230469 -7.18945312 7.91710937 -8.28515625 8.29296875 C-11 9 -11 9 -13 8 C-10.61426621 6.10786631 -8.92824652 4.97608217 -6 4 C-6.99 3.67 -7.98 3.34 -9 3 C-9 2.34 -9 1.68 -9 1 C-3.375 -1.125 -3.375 -1.125 0 0 Z " fill="#28E1F1" transform="translate(345,278)"/>
<path d="M0 0 C0.9684759 3.87390359 1.04960955 4.7574308 0.00390625 8.328125 C-0.33930664 9.52695312 -0.33930664 9.52695312 -0.68945312 10.75 C-0.93630859 11.575 -1.18316406 12.4 -1.4375 13.25 C-1.68048828 14.09046875 -1.92347656 14.9309375 -2.17382812 15.796875 C-2.77373949 17.86715734 -3.38570819 19.93393897 -4 22 C-4.33 22 -4.66 22 -5 22 C-5 17.71 -5 13.42 -5 9 C-4.34 9 -3.68 9 -3 9 C-2.01 6.03 -1.02 3.06 0 0 Z " fill="#1FE3F2" transform="translate(286,269)"/>
<path d="M0 0 C0.66 0 1.32 0 2 0 C2 3.63 2 7.26 2 11 C1.34 11 0.68 11 0 11 C-0.33 12.32 -0.66 13.64 -1 15 C-1.66 15 -2.32 15 -3 15 C-3.3152595 9.01006953 -2.68219822 5.36439644 0 0 Z " fill="#09EAFA" transform="translate(246,467)"/>
<path d="M0 0 C2 3 2 3 3 6.625 C3.33 7.73875 3.66 8.8525 4 10 C4.66 10.33 5.32 10.66 6 11 C5.67 13.31 5.34 15.62 5 18 C4.67 16.68 4.34 15.36 4 14 C3.01 14 2.02 14 1 14 C-0.512545 8.83955235 -1.33500455 5.34001821 0 0 Z " fill="#11E9F9" transform="translate(441,429)"/>
<path d="M0 0 C0.66 0 1.32 0 2 0 C2.33 1.32 2.66 2.64 3 4 C3.66 2.68 4.32 1.36 5 0 C5.53154742 1.60064843 6.04988353 3.20568874 6.5625 4.8125 C6.85253906 5.70582031 7.14257812 6.59914063 7.44140625 7.51953125 C8 10 8 10 7 13 C6.67 11.35 6.34 9.7 6 8 C5.34 8 4.68 8 4 8 C4 9.65 4 11.3 4 13 C1.99706653 9.99559979 1.50728374 8.29006055 0.875 4.8125 C0.70742188 3.91144531 0.53984375 3.01039063 0.3671875 2.08203125 C0.24601562 1.39496094 0.12484375 0.70789063 0 0 Z " fill="#27E3F1" transform="translate(411,332)"/>
<path d="M0 0 C0.66 0 1.32 0 2 0 C1.67 2.31 1.34 4.62 1 7 C1.66 7 2.32 7 3 7 C3.33 6.34 3.66 5.68 4 5 C3.48594831 9.96916636 2.76615118 14.29026351 1 19 C0.67 19 0.34 19 0 19 C0.33 15.37 0.66 11.74 1 8 C0.34 8 -0.32 8 -1 8 C-1.33 8.99 -1.66 9.98 -2 11 C-1.125 3.375 -1.125 3.375 0 0 Z " fill="#23E3F2" transform="translate(269,373)"/>
<path d="M0 0 C0.66 0 1.32 0 2 0 C2.66 2.97 3.32 5.94 4 9 C0.37 8.34 -3.26 7.68 -7 7 C-7 6.67 -7 6.34 -7 6 C-5.35 5.67 -3.7 5.34 -2 5 C-3.32 4.34 -4.64 3.68 -6 3 C-5.195625 2.87625 -4.39125 2.7525 -3.5625 2.625 C-2.716875 2.41875 -1.87125 2.2125 -1 2 C-0.67 1.34 -0.34 0.68 0 0 Z " fill="#06EEFB" transform="translate(395,270)"/>
<path d="M0 0 C1.65 0 3.3 0 5 0 C5 0.66 5 1.32 5 2 C5.99 2 6.98 2 8 2 C8 2.66 8 3.32 8 4 C9.65 3.67 11.3 3.34 13 3 C13 3.99 13 4.98 13 6 C14.65 6 16.3 6 18 6 C18 6.66 18 7.32 18 8 C19.32 8.33 20.64 8.66 22 9 C18.5126553 10.16244823 18.02291126 9.85848339 14.8046875 8.41796875 C14.00675781 8.06283203 13.20882812 7.70769531 12.38671875 7.34179688 C11.14341797 6.77041992 11.14341797 6.77041992 9.875 6.1875 C8.62009766 5.63352539 8.62009766 5.63352539 7.33984375 5.06835938 C1.1334707 2.26694139 1.1334707 2.26694139 0 0 Z " fill="#20E7F3" transform="translate(65,231)"/>
<path d="M0 0 C0.66 0.33 1.32 0.66 2 1 C2 3.64 2 6.28 2 9 C1.34 9 0.68 9 0 9 C-0.33 9.99 -0.66 10.98 -1 12 C-1.66 12 -2.32 12 -3 12 C-4.01661577 7.62855218 -4.16888759 4.99531924 -2 1 C-1.34 0.67 -0.68 0.34 0 0 Z " fill="#0FE9FB" transform="translate(250,453)"/>
<path d="M0 0 C1.16445606 3.49336818 0.77002998 4.62826149 -0.21484375 8.10546875 C-0.48876953 9.08837891 -0.76269531 10.07128906 -1.04492188 11.08398438 C-1.33947266 12.10814453 -1.63402344 13.13230469 -1.9375 14.1875 C-2.22818359 15.22326172 -2.51886719 16.25902344 -2.81835938 17.32617188 C-3.53803977 19.88634639 -4.2655212 22.44403911 -5 25 C-5.33 25 -5.66 25 -6 25 C-6 22.36 -6 19.72 -6 17 C-5.34 17 -4.68 17 -4 17 C-4 14.03 -4 11.06 -4 8 C-3.34 8 -2.68 8 -2 8 C-1.855625 6.865625 -1.71125 5.73125 -1.5625 4.5625 C-1 1 -1 1 0 0 Z " fill="#28E2EF" transform="translate(317,152)"/>
<path d="M0 0 C0.66 0.33 1.32 0.66 2 1 C1.67 1.99 1.34 2.98 1 4 C-3.67201205 5.20568053 -8.21496292 5.09382426 -13 5 C-13 6.32 -13 7.64 -13 9 C-13.99 8.67 -14.98 8.34 -16 8 C-15.67 6.68 -15.34 5.36 -15 4 C-14.33613281 3.87882812 -13.67226563 3.75765625 -12.98828125 3.6328125 C-8.41758237 2.7653806 -4.31793827 1.75416242 0 0 Z " fill="#25E1F2" transform="translate(430,480)"/>
<path d="M0 0 C4.56736441 0.70062483 8.5699505 2.31270207 12.8125 4.0625 C13.50537109 4.34416016 14.19824219 4.62582031 14.91210938 4.91601562 C16.60967624 5.60674973 18.30506312 6.30283728 20 7 C15.84228506 8.31538327 13.1120703 7.34433068 9 6 C9 5.34 9 4.68 9 4 C7.02 4.33 5.04 4.66 3 5 C3 4.34 3 3.68 3 3 C2.01 2.67 1.02 2.34 0 2 C0 1.34 0 0.68 0 0 Z " fill="#1DE4F2" transform="translate(134,217)"/>
<path d="M0 0 C0.66 0 1.32 0 2 0 C0 7.33333333 -2 14.66666667 -4 22 C-4.66 21.67 -5.32 21.34 -6 21 C-5.44957896 16.41315804 -4.51489217 12.35531499 -3 8 C-2.835 7.113125 -2.67 6.22625 -2.5 5.3125 C-2 3 -2 3 0 0 Z " fill="#21E2F2" transform="translate(37,74)"/>
<path d="M0 0 C-0.350625 0.61875 -0.70125 1.2375 -1.0625 1.875 C-1.371875 2.57625 -1.68125 3.2775 -2 4 C-1.67 4.66 -1.34 5.32 -1 6 C-8.625 7.25 -8.625 7.25 -12 5 C-10.68 4.67 -9.36 4.34 -8 4 C-8 3.34 -8 2.68 -8 2 C-5.09399739 0.74335022 -3.20395416 0 0 0 Z " fill="#06ECFD" transform="translate(163,469)"/>
<path d="M0 0 C0.33 0 0.66 0 1 0 C1 3.96 1 7.92 1 12 C0.01 12 -0.98 12 -2 12 C-2.33 13.65 -2.66 15.3 -3 17 C-3.33 17 -3.66 17 -4 17 C-4.34881725 11.30265156 -3.41208425 8.01713524 -1 3 C-0.67 2.01 -0.34 1.02 0 0 Z " fill="#09EAFC" transform="translate(263,404)"/>
<path d="M0 0 C1.32 0.33 2.64 0.66 4 1 C4 1.66 4 2.32 4 3 C4.66 3 5.32 3 6 3 C6 3.99 6 4.98 6 6 C7.32 6.33 8.64 6.66 10 7 C10.99 10.63 11.98 14.26 13 18 C10.25807666 15.25807666 8.52366244 12.83320004 6.5 9.5625 C4.45233145 6.26198161 2.38083763 3.0704095 0 0 Z " fill="#28E2EF" transform="translate(197,48)"/>
<path d="M0 0 C1.5 1.375 1.5 1.375 3 3 C3 3.66 3 4.32 3 5 C3.66 5.33 4.32 5.66 5 6 C4.67 8.31 4.34 10.62 4 13 C3.01 13 2.02 13 1 13 C0.1276588 10.00519083 -0.10829766 7.36424089 -0.0625 4.25 C-0.05347656 3.45078125 -0.04445313 2.6515625 -0.03515625 1.828125 C-0.02355469 1.22484375 -0.01195312 0.6215625 0 0 Z " fill="#14E6F7" transform="translate(383,228)"/>
<path d="M0 0 C1.53443561 4.09182829 0.60298436 7.77910951 0 12 C0 12.99 0 13.98 0 15 C-0.66 15 -1.32 15 -2 15 C-2 16.65 -2 18.3 -2 20 C-2.99 20.33 -3.98 20.66 -5 21 C-1.92482916 6.21867882 -1.92482916 6.21867882 0 0 Z " fill="#25E1EF" transform="translate(261,240)"/>
<path d="M0 0 C0 3.10551666 -0.5393715 4.35261084 -2 7 C-0.68 7.33 0.64 7.66 2 8 C0.68 8.99 -0.64 9.98 -2 11 C-2.33 10.34 -2.66 9.68 -3 9 C-4.65 9.33 -6.3 9.66 -8 10 C-5.83735988 6.01618925 -3.28788824 3.11016455 0 0 Z " fill="#2BE2F1" transform="translate(303,299)"/>
<path d="M0 0 C1.0354051 3.1848935 0.94040666 5.13031874 0.00390625 8.328125 C-0.33930664 9.52695312 -0.33930664 9.52695312 -0.68945312 10.75 C-0.93630859 11.575 -1.18316406 12.4 -1.4375 13.25 C-1.68048828 14.09046875 -1.92347656 14.9309375 -2.17382812 15.796875 C-2.77373949 17.86715734 -3.38570819 19.93393897 -4 22 C-4.33 22 -4.66 22 -5 22 C-4.58954476 15.2204118 -3.38938957 9.35006251 -1 3 C-0.67 2.01 -0.34 1.02 0 0 Z " fill="#28E3F1" transform="translate(260,368)"/>
<path d="M0 0 C2 2 2 2 2.1953125 4.3828125 C2.17210937 5.28773438 2.14890625 6.19265625 2.125 7.125 C2.10695313 8.03507812 2.08890625 8.94515625 2.0703125 9.8828125 C2.04710937 10.58148438 2.02390625 11.28015625 2 12 C1.01 12 0.02 12 -1 12 C-2.17571451 8.32589215 -2.07366746 4.83070817 -2 1 C-1.34 0.67 -0.68 0.34 0 0 Z " fill="#15E6F6" transform="translate(399,278)"/>
<path d="M0 0 C0.66 0.33 1.32 0.66 2 1 C1.67 1.99 1.34 2.98 1 4 C0.0409375 4.2165625 0.0409375 4.2165625 -0.9375 4.4375 C-1.9584375 4.7159375 -1.9584375 4.7159375 -3 5 C-3.433125 5.928125 -3.433125 5.928125 -3.875 6.875 C-5.53181761 10.00454438 -7.78779963 10.72850402 -11 12 C-11.66 11.67 -12.32 11.34 -13 11 C-11.39801112 9.53927468 -9.79332884 8.08150284 -8.1875 6.625 C-7.29417969 5.81289063 -6.40085937 5.00078125 -5.48046875 4.1640625 C-3 2 -3 2 0 0 Z " fill="#22DFED" transform="translate(42,35)"/>
<path d="M0 0 C1.13199353 0.9080162 2.25532363 1.82683826 3.375 2.75 C4.00148438 3.26046875 4.62796875 3.7709375 5.2734375 4.296875 C7.08902695 6.08781844 7.9028092 7.72452169 9 10 C10.31647119 10.69937532 11.65022151 11.36729133 13 12 C13.99 13.485 13.99 13.485 15 15 C10.29550863 13.57593775 7.9182827 11.137622 4.6875 7.5 C3.80449219 6.5203125 2.92148437 5.540625 2.01171875 4.53125 C0 2 0 2 0 0 Z " fill="#24E6F3" transform="translate(29,427)"/>
<path d="M0 0 C0.66 0 1.32 0 2 0 C2 1.32 2 2.64 2 4 C3.32 3.67 4.64 3.34 6 3 C6.66 5.97 7.32 8.94 8 12 C7.34 11.67 6.68 11.34 6 11 C6 9.68 6 8.36 6 7 C5.34 7 4.68 7 4 7 C4 8.65 4 10.3 4 12 C2.09681116 9.14521674 1.5380901 7.58058692 0.875 4.3125 C0.70742188 3.50425781 0.53984375 2.69601562 0.3671875 1.86328125 C0.24601562 1.24839844 0.12484375 0.63351562 0 0 Z " fill="#25E0F0" transform="translate(435,416)"/>
<path d="M0 0 C1.65 0.33 3.3 0.66 5 1 C5.33 2.65 5.66 4.3 6 6 C4.68 6 3.36 6 2 6 C2 6.66 2 7.32 2 8 C1.01 8.33 0.02 8.66 -1 9 C-1.33 7.68 -1.66 6.36 -2 5 C-1.34 4.67 -0.68 4.34 0 4 C0 2.68 0 1.36 0 0 Z " fill="#05EDFD" transform="translate(85,15)"/>
<path d="M0 0 C0.66 0 1.32 0 2 0 C2.33 1.32 2.66 2.64 3 4 C2.01 4 1.02 4 0 4 C-0.33 7.3 -0.66 10.6 -1 14 C-1.99 14.33 -2.98 14.66 -4 15 C-4 13.35 -4 11.7 -4 10 C-3.34 10 -2.68 10 -2 10 C-2.04125 8.906875 -2.0825 7.81375 -2.125 6.6875 C-2 3 -2 3 0 0 Z " fill="#07ECFB" transform="translate(257,428)"/>
<path d="M0 0 C0.33 0.66 0.66 1.32 1 2 C0.01 2.495 0.01 2.495 -1 3 C-1.33 3.99 -1.66 4.98 -2 6 C-0.68 6.33 0.64 6.66 2 7 C-1.75 10 -1.75 10 -4 10 C-4.33 9.01 -4.66 8.02 -5 7 C-5.66 6.34 -6.32 5.68 -7 5 C-4.69 3.35 -2.38 1.7 0 0 Z " fill="#23E4F4" transform="translate(316,289)"/>
<path d="M0 0 C2 3 2 3 1.8984375 4.9453125 C0.53514281 10.62231574 -1.44446892 15.75247744 -4 21 C-5.09178911 17.72463268 -4.93042848 16.95586381 -4.00390625 13.76953125 C-3.77509766 12.96708984 -3.54628906 12.16464844 -3.31054688 11.33789062 C-2.94026367 10.08782227 -2.94026367 10.08782227 -2.5625 8.8125 C-2.31951172 7.96751953 -2.07652344 7.12253906 -1.82617188 6.25195312 C-1.22506507 4.1657589 -0.61352166 2.08257699 0 0 Z " fill="#27E1ED" transform="translate(255,263)"/>
<path d="M0 0 C6.48292295 -0.3669579 6.48292295 -0.3669579 8.9375 1.375 C10 3 10 3 10 5 C10.66 5 11.32 5 12 5 C12 5.66 12 6.32 12 7 C7.39104317 5.68315519 3.85859765 3.84801255 0 1 C0 0.67 0 0.34 0 0 Z " fill="#28E6F4" transform="translate(47,458)"/>
<path d="M0 0 C0.66 0.33 1.32 0.66 2 1 C2 2.65 2 4.3 2 6 C0.68 6.33 -0.64 6.66 -2 7 C-2.33 8.32 -2.66 9.64 -3 11 C-3.33 10.01 -3.66 9.02 -4 8 C-4.66 7.67 -5.32 7.34 -6 7 C-5.01 7 -4.02 7 -3 7 C-2.690625 6.030625 -2.38125 5.06125 -2.0625 4.0625 C-1 1 -1 1 0 0 Z " fill="#0EEAFA" transform="translate(287,323)"/>
<path d="M0 0 C0.66 0 1.32 0 2 0 C1.31195504 6.19240462 -0.28048715 12.01955594 -2 18 C-2.66 17.34 -3.32 16.68 -4 16 C-3.72265625 14.265625 -3.72265625 14.265625 -3 12 C-2.75121094 11.00484375 -2.50242187 10.0096875 -2.24609375 8.984375 C-1.49739583 5.98958333 -0.74869792 2.99479167 0 0 Z " fill="#29E1F0" transform="translate(321,132)"/>
<path d="M0 0 C1.67641098 4.09086452 0.2409319 7.71511018 -0.9375 11.75 C-1.13279297 12.44738281 -1.32808594 13.14476562 -1.52929688 13.86328125 C-2.0108246 15.57798973 -2.50425157 17.28934877 -3 19 C-3.33 19 -3.66 19 -4 19 C-4 16.03 -4 13.06 -4 10 C-3.34 10 -2.68 10 -2 10 C-2 7.69 -2 5.38 -2 3 C-1.34 3 -0.68 3 0 3 C0 2.01 0 1.02 0 0 Z " fill="#28E2F0" transform="translate(307,189)"/>
<path d="M0 0 C1.90318884 2.85478326 2.4619099 4.41941308 3.125 7.6875 C3.29257812 8.49574219 3.46015625 9.30398438 3.6328125 10.13671875 C3.75398438 10.75160156 3.87515625 11.36648438 4 12 C3.01 12 2.02 12 1 12 C1 13.65 1 15.3 1 17 C-0.4606285 14.35261084 -1 13.10551666 -1 10 C-0.34 10 0.32 10 1 10 C0.67 6.7 0.34 3.4 0 0 Z " fill="#28E0EE" transform="translate(400,280)"/>
<path d="M0 0 C0.66 0 1.32 0 2 0 C2 1.32 2 2.64 2 4 C2.99 4.33 3.98 4.66 5 5 C4.67 7.31 4.34 9.62 4 12 C3.34 12 2.68 12 2 12 C1.87625 11.21625 1.7525 10.4325 1.625 9.625 C1.20882007 6.85942178 1.20882007 6.85942178 -1 5 C-0.625 2.375 -0.625 2.375 0 0 Z " fill="#09ECFB" transform="translate(347,103)"/>
<path d="M0 0 C2.42130331 2.42130331 2.52840504 3.80111377 3.125 7.125 C3.29257812 8.03507812 3.46015625 8.94515625 3.6328125 9.8828125 C3.81457031 10.93082031 3.81457031 10.93082031 4 12 C3.34 12 2.68 12 2 12 C2 10.68 2 9.36 2 8 C1.34 8 0.68 8 0 8 C0 9.65 0 11.3 0 13 C-2 10 -2 10 -2 7 C-1.34 7 -0.68 7 0 7 C0 4.69 0 2.38 0 0 Z " fill="#26E0ED" transform="translate(347,95)"/>
<path d="M0 0 C0.66 1.32 1.32 2.64 2 4 C1.38125 4.04125 0.7625 4.0825 0.125 4.125 C-0.57625 4.41375 -1.2775 4.7025 -2 5 C-2.33 5.99 -2.66 6.98 -3 8 C-3.33 8.99 -3.66 9.98 -4 11 C-6.125 11.875 -6.125 11.875 -8 12 C-6.59023295 8.96147295 -4.91129772 6.4060405 -2.875 3.75 C-2.06675781 2.69039063 -2.06675781 2.69039063 -1.2421875 1.609375 C-0.83226562 1.07828125 -0.42234375 0.5471875 0 0 Z " fill="#22E2EE" transform="translate(207,428)"/>
<path d="M0 0 C0.66 0.33 1.32 0.66 2 1 C2 2.98 2 4.96 2 7 C0.02 7.66 -1.96 8.32 -4 9 C-3.67 8.34 -3.34 7.68 -3 7 C-2.34 7 -1.68 7 -1 7 C-1.66 5.35 -2.32 3.7 -3 2 C-2.01 1.34 -1.02 0.68 0 0 Z " fill="#20E3F3" transform="translate(328,282)"/>
<path d="M0 0 C1.65 0 3.3 0 5 0 C5.33 0.99 5.66 1.98 6 3 C7.32 3 8.64 3 10 3 C10 3.66 10 4.32 10 5 C11.65 5.33 13.3 5.66 15 6 C15 6.66 15 7.32 15 8 C9.52067211 6.45454854 4.88570819 3.84456788 0 1 C0 0.67 0 0.34 0 0 Z " fill="#26E6F0" transform="translate(157,266)"/>
<path d="M0 0 C2.12508244 3.18762365 2.5020163 5.26512223 3 9 C2.01 8.34 1.02 7.68 0 7 C0 8.98 0 10.96 0 13 C-2.29633824 9.55549263 -2.54016485 7.06187717 -3 3 C-2.01 3.495 -2.01 3.495 -1 4 C-0.67 2.68 -0.34 1.36 0 0 Z " fill="#26DEEF" transform="translate(427,374)"/>
<path d="M0 0 C0.99 0.33 1.98 0.66 3 1 C3 1.66 3 2.32 3 3 C3.66 3.33 4.32 3.66 5 4 C5 6.64 5 9.28 5 12 C4.34 12 3.68 12 3 12 C3 10.35 3 8.7 3 7 C2.34 7 1.68 7 1 7 C0.67 4.69 0.34 2.38 0 0 Z " fill="#0BEBFC" transform="translate(426,380)"/>
<path d="M0 0 C0.33 0 0.66 0 1 0 C1.05429959 1.74965358 1.09292823 3.49979787 1.125 5.25 C1.14820313 6.22453125 1.17140625 7.1990625 1.1953125 8.203125 C0.99862781 11.0196498 0.44568916 12.60949036 -1 15 C-1.66 15 -2.32 15 -3 15 C-2.35812082 9.86496656 -1.31727753 5.0056546 0 0 Z " fill="#26E1EF" transform="translate(292,121)"/>
<path d="M0 0 C3.18633697 1.59316849 3.78781343 3.72709626 5 7 C4.1875 10.875 4.1875 10.875 3 14 C2.34 13.67 1.68 13.34 1 13 C0.5859375 10.05859375 0.5859375 10.05859375 0.375 6.4375 C0.30023438 5.23996094 0.22546875 4.04242188 0.1484375 2.80859375 C0.09945313 1.88175781 0.05046875 0.95492187 0 0 Z " fill="#0BEBFB" transform="translate(351,116)"/>
<path d="M0 0 C2.01822917 0.29296875 4.03645833 0.5859375 6.0546875 0.87890625 C8.08140667 1.1684297 8.08140667 1.1684297 10 0 C9.67 2.31 9.34 4.62 9 7 C7.4972763 6.02501855 5.99788037 5.04490611 4.5 4.0625 C3.6646875 3.51722656 2.829375 2.97195312 1.96875 2.41015625 C1.3190625 1.94480469 0.669375 1.47945312 0 1 C0 0.67 0 0.34 0 0 Z " fill="#1DE4F1" transform="translate(293,27)"/>
<path d="M0 0 C2.31 0 4.62 0 7 0 C7.33 1.65 7.66 3.3 8 5 C6.68 5 5.36 5 4 5 C4 4.01 4 3.02 4 2 C2.68 2 1.36 2 0 2 C0 1.34 0 0.68 0 0 Z " fill="#1BE3F2" transform="translate(492,484)"/>
<path d="M0 0 C0.66 0 1.32 0 2 0 C2.185625 1.2065625 2.185625 1.2065625 2.375 2.4375 C2.58125 3.283125 2.7875 4.12875 3 5 C3.66 5.33 4.32 5.66 5 6 C4.34 7.65 3.68 9.3 3 11 C2.67 11 2.34 11 2 11 C2 9.35 2 7.7 2 6 C1.01 5.67 0.02 5.34 -1 5 C-0.67 3.35 -0.34 1.7 0 0 Z " fill="#09EBFB" transform="translate(411,326)"/>
<path d="M0 0 C0.66 0 1.32 0 2 0 C1.71682074 1.60568666 1.42312209 3.20952047 1.125 4.8125 C0.96257812 5.70582031 0.80015625 6.59914063 0.6328125 7.51953125 C0 10 0 10 -2 13 C-2 9.7 -2 6.4 -2 3 C-1.34 3 -0.68 3 0 3 C0 2.01 0 1.02 0 0 Z " fill="#1FE3F1" transform="translate(269,331)"/>
<path d="M0 0 C1.65 0 3.3 0 5 0 C5.33 1.65 5.66 3.3 6 5 C7.32 5 8.64 5 10 5 C10 5.99 10 6.98 10 8 C6.40094092 7.44449305 5.00090201 6.25112752 2.75 3.4375 C2.22921875 2.79683594 1.7084375 2.15617187 1.171875 1.49609375 C0.78515625 1.00238281 0.3984375 0.50867188 0 0 Z " fill="#20E9F4" transform="translate(200,294)"/>
<path d="M0 0 C0.66 0.33 1.32 0.66 2 1 C1.71715982 2.77226453 1.42339502 4.542788 1.125 6.3125 C0.96257812 7.29863281 0.80015625 8.28476562 0.6328125 9.30078125 C0 12 0 12 -2 15 C-2.19392201 9.47322267 -1.7479503 5.24385089 0 0 Z " fill="#24E3EE" transform="translate(229,281)"/>
<path d="M0 0 C0.66 0.33 1.32 0.66 2 1 C-4 7 -4 7 -6.5625 7.0625 C-7.7690625 7.0315625 -7.7690625 7.0315625 -9 7 C-6.25604436 4.05278838 -3.61662784 1.80831392 0 0 Z " fill="#23E2F1" transform="translate(53,28)"/>
<path d="M0 0 C0.99 0.33 1.98 0.66 3 1 C3 2.98 3 4.96 3 7 C1.35 6.67 -0.3 6.34 -2 6 C-1.49396008 3.83125748 -1.00016187 2.00032373 0 0 Z " fill="#06EDFC" transform="translate(241,483)"/>
<path d="M0 0 C1.32014582 3.96043746 0.27727477 6.09721599 -1 10 C-1.33 10.66 -1.66 11.32 -2 12 C-2.99 12 -3.98 12 -5 12 C-3.68938409 7.76570244 -2.05643741 3.92592596 0 0 Z " fill="#26DFEB" transform="translate(218,408)"/>
<path d="M0 0 C0.66 0.33 1.32 0.66 2 1 C2 2.65 2 4.3 2 6 C2.99 6.33 3.98 6.66 5 7 C4.67 8.65 4.34 10.3 4 12 C3.34 11.67 2.68 11.34 2 11 C1.33333333 8.66666667 0.66666667 6.33333333 0 4 C-0.66 3.67 -1.32 3.34 -2 3 C-1.34 3 -0.68 3 0 3 C0 2.01 0 1.02 0 0 Z " fill="#0CEBFC" transform="translate(431,394)"/>
<path d="M0 0 C0.66 0 1.32 0 2 0 C1.40380045 4.86896303 0.43023178 9.32790951 -1 14 C-1.33 14 -1.66 14 -2 14 C-2.1799928 8.78020872 -1.97094808 4.92737019 0 0 Z " fill="#28DEF1" transform="translate(279,292)"/>
<path d="M0 0 C1.32 0.33 2.64 0.66 4 1 C4 3.97 4 6.94 4 10 C0.48283697 6.48283697 0.45323837 4.80432667 0 0 Z " fill="#0BEBFB" transform="translate(401,292)"/>
<path d="M0 0 C2.16750011 3.25125017 2.68533358 5.14533632 3 9 C2.0625 11.375 2.0625 11.375 1 13 C0.34 13 -0.32 13 -1 13 C-1.33 11.02 -1.66 9.04 -2 7 C-1.67 7.66 -1.34 8.32 -1 9 C-0.34 9 0.32 9 1 9 C0.67 6.03 0.34 3.06 0 0 Z " fill="#23E0ED" transform="translate(366,161)"/>
<path d="M0 0 C0.66 0 1.32 0 2 0 C2 0.66 2 1.32 2 2 C2.66 2.33 3.32 2.66 4 3 C4 5.97 4 8.94 4 12 C3.34 12 2.68 12 2 12 C2 11.34 2 10.68 2 10 C1.34 9.67 0.68 9.34 0 9 C0.66 9 1.32 9 2 9 C2 7.35 2 5.7 2 4 C1.34 4 0.68 4 0 4 C0 2.68 0 1.36 0 0 Z " fill="#0BEBFC" transform="translate(363,158)"/>
<path d="M0 0 C-4.50332676 3.00221784 -8.57767579 4.31896025 -14 4 C-13 2 -13 2 -10.375 0.875 C-6.78189212 -0.05654649 -3.69584376 -0.14783375 0 0 Z " fill="#29E5F4" transform="translate(176,471)"/>
<path d="M0 0 C0.99 0.495 0.99 0.495 2 1 C2.67784992 3.33010909 3.34416793 5.66359824 4 8 C4.66 8.66 5.32 9.32 6 10 C4.68 10.33 3.36 10.66 2 11 C2 9.68 2 8.36 2 7 C1.34 7 0.68 7 0 7 C0 4.69 0 2.38 0 0 Z " fill="#09ECF8" transform="translate(435,409)"/>
<path d="M0 0 C0.99 0.33 1.98 0.66 3 1 C3 2.98 3 4.96 3 7 C2.34 7 1.68 7 1 7 C1 7.66 1 8.32 1 9 C0.34 9 -0.32 9 -1 9 C-0.67 6.69 -0.34 4.38 0 2 C-0.66 1.67 -1.32 1.34 -2 1 C-1.34 0.67 -0.68 0.34 0 0 Z " fill="#0AECFD" transform="translate(271,371)"/>
<path d="M0 0 C0.66 0 1.32 0 2 0 C1.71572583 1.58467728 1.42225182 3.1677057 1.125 4.75 C0.88136719 6.07257813 0.88136719 6.07257813 0.6328125 7.421875 C0.03203736 9.86947744 -0.77997117 11.80599857 -2 14 C-2.1799928 8.78020872 -1.97094808 4.92737019 0 0 Z " fill="#28E1F0" transform="translate(265,346)"/>
<path d="M0 0 C0.33 0 0.66 0 1 0 C1.1799928 5.21979128 0.97094808 9.07262981 -1 14 C-1.66 14 -2.32 14 -3 14 C-2.69024532 12.22868439 -2.37709575 10.45796222 -2.0625 8.6875 C-1.88847656 7.70136719 -1.71445313 6.71523438 -1.53515625 5.69921875 C-1 3 -1 3 0 0 Z " fill="#2BDDEE" transform="translate(238,328)"/>
<path d="M0 0 C0.33 0 0.66 0 1 0 C1 2.97 1 5.94 1 9 C0.34 9 -0.32 9 -1 9 C-1.33 10.65 -1.66 12.3 -2 14 C-3.21065165 10.36804504 -2.62784815 8.93468371 -1.5625 5.3125 C-1.27503906 4.31863281 -0.98757813 3.32476562 -0.69140625 2.30078125 C-0.46324219 1.54152344 -0.23507812 0.78226562 0 0 Z " fill="#2ADEEE" transform="translate(296,106)"/>
<path d="M0 0 C0.66 0 1.32 0 2 0 C3.42258812 3.82320557 4.24042276 6.91281305 4 11 C3.01 11.495 3.01 11.495 2 12 C0.86235649 7.73383684 0 4.43513689 0 0 Z " fill="#2AE3F3" transform="translate(217,84)"/>
<path d="M0 0 C5.94 0.99 5.94 0.99 12 2 C12 2.66 12 3.32 12 4 C10.02 4.33 8.04 4.66 6 5 C5.67 4.34 5.34 3.68 5 3 C2.47266765 2.34444881 2.47266765 2.34444881 0 2 C0 1.34 0 0.68 0 0 Z " fill="#24E1F0" transform="translate(95,471)"/>
<path d="M0 0 C0.66 0.33 1.32 0.66 2 1 C-0.97 5.95 -0.97 5.95 -4 11 C-4.33 10.34 -4.66 9.68 -5 9 C-4.67 8.01 -4.34 7.02 -4 6 C-3.34 6 -2.68 6 -2 6 C-2.33 5.01 -2.66 4.02 -3 3 C-2.01 2.01 -1.02 1.02 0 0 Z " fill="#24E2F0" transform="translate(245,411)"/>
<path d="M0 0 C0.33 0 0.66 0 1 0 C1.35050464 5.841744 1.16727335 9.8531808 -2 15 C-3.31534494 11.34142468 -2.65468309 8.91973519 -1.5625 5.25 C-1.27503906 4.26515625 -0.98757813 3.2803125 -0.69140625 2.265625 C-0.46324219 1.51796875 -0.23507812 0.7703125 0 0 Z " fill="#2BE3F1" transform="translate(262,399)"/>
<path d="M0 0 C0.66 0 1.32 0 2 0 C1.67 0.66 1.34 1.32 1 2 C0.67 1.34 0.34 0.68 0 0 Z M-6 1 C-2.6875 1.1875 -2.6875 1.1875 1 2 C2.9375 4.5625 2.9375 4.5625 4 7 C0.00499382 5.6302836 -2.80009492 3.74277578 -6 1 Z " fill="#22E7F1" transform="translate(178,273)"/>
<path d="M0 0 C3.3 0.33 6.6 0.66 10 1 C10 1.66 10 2.32 10 3 C11.32 3.33 12.64 3.66 14 4 C10.22134307 5.25955231 8.96588214 4.48087189 5.3125 3.0625 C4.31863281 2.68222656 3.32476562 2.30195313 2.30078125 1.91015625 C1.54152344 1.60980469 0.78226562 1.30945313 0 1 C0 0.67 0 0.34 0 0 Z " fill="#28E4F1" transform="translate(122,252)"/>
<path d="M0 0 C0.66 0.33 1.32 0.66 2 1 C2 4.3 2 7.6 2 11 C1.34 10.67 0.68 10.34 0 10 C-0.33333333 8.33333333 -0.66666667 6.66666667 -1 5 C-1.66 4.67 -2.32 4.34 -3 4 C-2.34 4 -1.68 4 -1 4 C-0.67 2.68 -0.34 1.36 0 0 Z " fill="#0DEAFA" transform="translate(368,170)"/>
<path d="M0 0 C0.33 0.66 0.66 1.32 1 2 C0.109375 3.91015625 0.109375 3.91015625 -1.25 6.0625 C-1.90742188 7.13177734 -1.90742188 7.13177734 -2.578125 8.22265625 C-4 10 -4 10 -7 11 C-5.5140084 6.40693504 -3.14985318 3.56430755 0 0 Z " fill="#29DEEC" transform="translate(18,57)"/>
<path d="M0 0 C0.66 0 1.32 0 2 0 C1.67 2.64 1.34 5.28 1 8 C-0.32 8 -1.64 8 -3 8 C-3 7.01 -3 6.02 -3 5 C-2.34 4.67 -1.68 4.34 -1 4 C-0.34786708 1.97536745 -0.34786708 1.97536745 0 0 Z " fill="#18E7F6" transform="translate(261,416)"/>
<path d="M0 0 C1.13643966 3.40931897 0.86747764 4.00335456 -0.4375 7.1875 C-0.72496094 7.90292969 -1.01242188 8.61835938 -1.30859375 9.35546875 C-1.53675781 9.89816406 -1.76492187 10.44085938 -2 11 C-2.33 11 -2.66 11 -3 11 C-3.66 8.69 -4.32 6.38 -5 4 C-3.68 4.33 -2.36 4.66 -1 5 C-0.67 3.35 -0.34 1.7 0 0 Z " fill="#21E2F2" transform="translate(254,390)"/>
<path d="M0 0 C1.46726798 3.81489674 0.43336419 6.29011622 -1 10 C-1.99 9.67 -2.98 9.34 -4 9 C-4 8.34 -4 7.68 -4 7 C-3.34 7 -2.68 7 -2 7 C-2 5.35 -2 3.7 -2 2 C-1.34 2 -0.68 2 0 2 C0 1.34 0 0.68 0 0 Z " fill="#2AE0EE" transform="translate(223,308)"/>
<path d="M0 0 C1.5 1.25 1.5 1.25 3 3 C3 4.32 3 5.64 3 7 C3.66 7 4.32 7 5 7 C4.67 7.99 4.34 8.98 4 10 C2.99406757 8.8803014 1.9954151 7.7540588 1 6.625 C0.443125 5.99851562 -0.11375 5.37203125 -0.6875 4.7265625 C-2 3 -2 3 -2 1 C-1.34 0.67 -0.68 0.34 0 0 Z " fill="#24E2F1" transform="translate(212,302)"/>
<path d="M0 0 C2.475 0.99 2.475 0.99 5 2 C5 3.32 5 4.64 5 6 C5.66 6 6.32 6 7 6 C6.67 6.99 6.34 7.98 6 9 C4.99712471 7.68969568 3.99777175 6.37669473 3 5.0625 C2.443125 4.33160156 1.88625 3.60070312 1.3125 2.84765625 C0 1 0 1 0 0 Z " fill="#28E2F1" transform="translate(14,187)"/>
<path d="M0 0 C0.66 0 1.32 0 2 0 C2 1.32 2 2.64 2 4 C2.66 4 3.32 4 4 4 C4 6.31 4 8.62 4 11 C1.73030256 8.73030256 1.00868171 7.02604513 0 4 C0 2.68 0 1.36 0 0 Z " fill="#2FE2F1" transform="translate(1,158)"/>
<path d="M0 0 C0.33 0 0.66 0 1 0 C1.63019694 8.03501094 1.63019694 8.03501094 -1 12.0625 C-1.66 12.701875 -2.32 13.34125 -3 14 C-2.68872484 12.41642541 -2.37592711 10.83315007 -2.0625 9.25 C-1.80146484 7.92742187 -1.80146484 7.92742187 -1.53515625 6.578125 C-1.07631512 4.36764947 -0.56663926 2.18487932 0 0 Z " fill="#29DFEE" transform="translate(286,144)"/>
<path d="M0 0 C0.33 0 0.66 0 1 0 C1.66 2.31 2.32 4.62 3 7 C1.35 8.32 -0.3 9.64 -2 11 C-1.125 3.375 -1.125 3.375 0 0 Z " fill="#21E4F3" transform="translate(300,91)"/>
<path d="M0 0 C1.14926266 0.95421808 2.29430541 1.91352045 3.4375 2.875 C4.07558594 3.40867188 4.71367188 3.94234375 5.37109375 4.4921875 C7 6 7 6 8 8 C6.35 7.67 4.7 7.34 3 7 C3 6.34 3 5.68 3 5 C2.34 5 1.68 5 1 5 C0.67 3.35 0.34 1.7 0 0 Z " fill="#26E1EF" transform="translate(52,174)"/>
<path d="M0 0 C0 0.99 0 1.98 0 3 C-0.99 3.33 -1.98 3.66 -3 4 C-3.73323796 6.01508358 -3.73323796 6.01508358 -4 8 C-4.99 8 -5.98 8 -7 8 C-5.50902342 4.2047869 -3.24299151 2.38957269 0 0 Z " fill="#16EDF8" transform="translate(28,47)"/>
<path d="M0 0 C0.99 0.495 0.99 0.495 2 1 C2.33 0.67 2.66 0.34 3 0 C4.66617115 -0.04063832 6.33388095 -0.042721 8 0 C5.31158141 2.25245881 3.35358125 3.88213958 0 5 C0 3.35 0 1.7 0 0 Z " fill="#21E2F0" transform="translate(72,27)"/>
<path d="M0 0 C0.99 0.66 1.98 1.32 3 2 C2.67 3.98 2.34 5.96 2 8 C1.34 8 0.68 8 0 8 C-0.185625 6.824375 -0.185625 6.824375 -0.375 5.625 C-0.79117993 2.85942178 -0.79117993 2.85942178 -3 1 C-2.01 0.67 -1.02 0.34 0 0 Z " fill="#0AEDFC" transform="translate(421,358)"/>
<path d="M0 0 C1.5 1.375 1.5 1.375 3 3 C3 3.66 3 4.32 3 5 C1.35 5.66 -0.3 6.32 -2 7 C-2.66 6.34 -3.32 5.68 -4 5 C-3.01 4.34 -2.02 3.68 -1 3 C-0.67 2.01 -0.34 1.02 0 0 Z " fill="#06EEFD" transform="translate(324,284)"/>
<path d="M0 0 C0.66 0.33 1.32 0.66 2 1 C1.67 2.32 1.34 3.64 1 5 C-1.97 5 -4.94 5 -8 5 C-5.56159764 2.56159764 -3.14759102 1.37707107 0 0 Z " fill="#27DEEA" transform="translate(169,463)"/>
<path d="M0 0 C3.08089673 2.77280706 4.68775452 5.06326356 6 9 C5.01 8.67 4.02 8.34 3 8 C3 7.34 3 6.68 3 6 C2.34 6 1.68 6 1 6 C0.67 4.02 0.34 2.04 0 0 Z " fill="#22E1F0" transform="translate(18,412)"/>
<path d="M0 0 C0.66 0 1.32 0 2 0 C1.4140625 6.15234375 1.4140625 6.15234375 1 8 C0.01 8.495 0.01 8.495 -1 9 C-0.67 6.03 -0.34 3.06 0 0 Z " fill="#05EBFB" transform="translate(268,381)"/>
<path d="M0 0 C0.66 0 1.32 0 2 0 C2 2.31 2 4.62 2 7 C1.01 7 0.02 7 -1 7 C-0.67 5.68 -0.34 4.36 0 3 C-0.66 2.67 -1.32 2.34 -2 2 C-1.34 2 -0.68 2 0 2 C0 1.34 0 0.68 0 0 Z " fill="#08ECFB" transform="translate(275,355)"/>
<path d="M0 0 C2.31 0.33 4.62 0.66 7 1 C8.125 4.75 8.125 4.75 7 7 C5.83040013 6.02433888 4.66438823 5.044375 3.5 4.0625 C2.8503125 3.51722656 2.200625 2.97195313 1.53125 2.41015625 C1.0259375 1.94480469 0.520625 1.47945313 0 1 C0 0.67 0 0.34 0 0 Z " fill="#2EE1F0" transform="translate(192,287)"/>
<path d="M0 0 C0.33 0.99 0.66 1.98 1 3 C3.01508358 3.73323796 3.01508358 3.73323796 5 4 C3 5 3 5 0.8359375 4.44140625 C0.02382812 4.15136719 -0.78828125 3.86132812 -1.625 3.5625 C-2.44226563 3.27503906 -3.25953125 2.98757812 -4.1015625 2.69140625 C-4.72804688 2.46324219 -5.35453125 2.23507813 -6 2 C-6 1.67 -6 1.34 -6 1 C-4.02 0.67 -2.04 0.34 0 0 Z " fill="#27E3F0" transform="translate(99,242)"/>
<path d="M0 0 C0.66 0 1.32 0 2 0 C2.33 1.98 2.66 3.96 3 6 C1.68 6 0.36 6 -1 6 C-0.67 4.02 -0.34 2.04 0 0 Z " fill="#17E1F0" transform="translate(420,353)"/>
<path d="M0 0 C2.31 1.65 4.62 3.3 7 5 C3.86650268 6.04449911 3.01031744 5.93423645 0 5 C0 3.35 0 1.7 0 0 Z " fill="#20E4EE" transform="translate(221,264)"/>
<path d="M0 0 C1.32 0 2.64 0 4 0 C4 0.66 4 1.32 4 2 C4.9590625 2.1546875 4.9590625 2.1546875 5.9375 2.3125 C6.618125 2.539375 7.29875 2.76625 8 3 C8.33 3.99 8.66 4.98 9 6 C5.06326356 4.68775452 2.77280706 3.08089673 0 0 Z " fill="#2BE4F1" transform="translate(42,217)"/>
<path d="M0 0 C1.98 0.99 1.98 0.99 4 2 C3.67 3.98 3.34 5.96 3 8 C2.34 8 1.68 8 1 8 C0.67 5.36 0.34 2.72 0 0 Z " fill="#07ECFB" transform="translate(370,183)"/>
<path d="M0 0 C2 1 2 1 2 1 Z M-1 1 C0.125 2.6875 0.125 2.6875 1 5 C0.125 7.75 0.125 7.75 -1 10 C-1.33 10 -1.66 10 -2 10 C-2.625 7.1875 -2.625 7.1875 -3 4 C-2.34 3.01 -1.68 2.02 -1 1 Z " fill="#1AEDFA" transform="translate(222,92)"/>
<path d="M0 0 C0.66 0 1.32 0 2 0 C1.34 2.97 0.68 5.94 0 9 C-0.99 9 -1.98 9 -3 9 C-2.01 6.03 -1.02 3.06 0 0 Z " fill="#26E3EE" transform="translate(221,14)"/>
<path d="M0 0 C0.66 0 1.32 0 2 0 C2 1.65 2 3.3 2 5 C0.68 5 -0.64 5 -2 5 C-1.125 1.125 -1.125 1.125 0 0 Z " fill="#07EEF7" transform="translate(303,301)"/>
<path d="M0 0 C0.99 0.33 1.98 0.66 3 1 C3.6875 3.0625 3.6875 3.0625 4 5 C2.35 4.67 0.7 4.34 -1 4 C-0.67 2.68 -0.34 1.36 0 0 Z " fill="#0DECFB" transform="translate(309,295)"/>
<path d="M0 0 C0.33 0.66 0.66 1.32 1 2 C3.02463255 2.65213292 3.02463255 2.65213292 5 3 C2.66785852 4.20628008 0.50357861 5.1654738 -2 6 C-1.34 4.02 -0.68 2.04 0 0 Z " fill="#04EDFE" transform="translate(335,279)"/>
<path d="M0 0 C1.98 0 3.96 0 6 0 C5.34 2.31 4.68 4.62 4 7 C2 3.25 2 3.25 2 1 C1.34 0.67 0.68 0.34 0 0 Z " fill="#11EBFB" transform="translate(390,261)"/>
<path d="M0 0 C5.75 1.75 5.75 1.75 8 4 C6.35 4.33 4.7 4.66 3 5 C2.01 3.35 1.02 1.7 0 0 Z " fill="#1CE2EF" transform="translate(160,227)"/>
<path d="M0 0 C2.97 0.99 5.94 1.98 9 3 C9 3.33 9 3.66 9 4 C6.36 3.67 3.72 3.34 1 3 C0.67 2.01 0.34 1.02 0 0 Z " fill="#25E0EE" transform="translate(96,203)"/>
<path d="M0 0 C3.96 1.98 3.96 1.98 8 4 C8 4.33 8 4.66 8 5 C6.02 5 4.04 5 2 5 C1.34 3.35 0.68 1.7 0 0 Z " fill="#26DEE7" transform="translate(73,191)"/>
</svg>
